<svg xmlns="http://www.w3.org/2000/svg" xmlns:xlink="http://www.w3.org/1999/xlink" width="40" height="40" viewBox="0 0 40 40">
  <defs>
    <clipPath id="clip-path">
      <rect id="Rectangle_15" data-name="Rectangle 15" width="40" height="40" fill="#00bbde"/>
    </clipPath>
  </defs>
  <g id="Mask_Group_2" data-name="Mask Group 2" clip-path="url(#clip-path)">
    <path id="account" d="M20,8.758A7.742,7.742,0,1,0,27.742,16.5,7.744,7.744,0,0,0,20,8.758Zm0,11.613A3.871,3.871,0,1,1,23.871,16.5,3.872,3.872,0,0,1,20,20.371ZM20,1.016a20,20,0,1,0,20,20A20,20,0,0,0,20,1.016Zm0,36.129a16.037,16.037,0,0,1-10.492-3.9,6.948,6.948,0,0,1,5.613-3.185A16.407,16.407,0,0,0,20,30.831a16.152,16.152,0,0,0,4.879-.774,6.968,6.968,0,0,1,5.613,3.185A16.037,16.037,0,0,1,20,37.145Zm13.121-6.782a10.7,10.7,0,0,0-8.476-4.185c-.823,0-2.1.774-4.645.774s-3.823-.774-4.645-.774a10.721,10.721,0,0,0-8.476,4.185,16.121,16.121,0,1,1,29.25-9.347A16.013,16.013,0,0,1,33.121,30.363Z" transform="translate(0 -1.461)" fill="#00bbde"/>
  </g>
</svg>
