<svg xmlns="http://www.w3.org/2000/svg" xmlns:xlink="http://www.w3.org/1999/xlink" width="49" height="49" viewBox="0 0 49 49">
  <defs>
    <clipPath id="clip-path">
      <rect id="Rectangle_14" data-name="Rectangle 14" width="49" height="49" transform="translate(0.162)" fill="#00bbde"/>
    </clipPath>
  </defs>
  <g id="shopping_basket" transform="translate(-0.162)">
    <g id="Mask_Group_1" data-name="Mask Group 1" clip-path="url(#clip-path)">
      <path id="basket" d="M48.677,19.049V20.4a2.028,2.028,0,0,1-2.028,2.028h-.676L43.766,37.877A4.056,4.056,0,0,1,39.75,41.36H8.927a4.057,4.057,0,0,1-4.016-3.483L2.7,22.43H2.028A2.028,2.028,0,0,1,0,20.4V19.049a2.028,2.028,0,0,1,2.028-2.028H7.719L16.743,4.614a2.7,2.7,0,1,1,4.374,3.181l-6.71,9.226H34.27L27.56,7.795a2.7,2.7,0,0,1,4.374-3.181l9.024,12.408h5.691A2.028,2.028,0,0,1,48.677,19.049ZM26.367,33.923V24.458a2.028,2.028,0,1,0-4.056,0v9.465a2.028,2.028,0,0,0,4.056,0Zm9.465,0V24.458a2.028,2.028,0,1,0-4.056,0v9.465a2.028,2.028,0,0,0,4.056,0Zm-18.93,0V24.458a2.028,2.028,0,1,0-4.056,0v9.465a2.028,2.028,0,0,0,4.056,0Z" transform="translate(0 1.503)" fill="#00bbde"/>
    </g>
  </g>
</svg>
